{
  "accessors": [
    {
      "bufferView": 2,
      "componentType": 5126,
      "count": 3870,
      "max": [
        200.8571014404297,
        102.58270263671875,
        131.5260009765625
      ],
      "min": [
        87.64820098876953,
        -103.8224105834961,
        0.11060000211000443
      ],
      "type": "VEC3"
    },
    {
      "bufferView": 2,
      "byteOffset": 46440,
      "componentType": 5126,
      "count": 3870,
      "max": [
        1.0,
        1.0,
        0.9999787211418152
      ],
      "min": [
        -1.0,
        -1.0,
        -0.9999638795852661
      ],
      "type": "VEC3"
    },
    {
      "bufferView": 3,
      "componentType": 5126,
      "count": 3870,
      "max": [
        0.9999852776527405,
        0.9998319745063782,
        1.0,
        1.0
      ],
      "min": [
        -0.9999970197677612,
        -0.9999786615371704,
        -1.0,
        -1.0
      ],
      "type": "VEC4"
    },
    {
      "bufferView": 1,
      "componentType": 5126,
      "count": 3870,
      "max": [
        0.9686750173568726,
        0.8476160168647766
      ],
      "min": [
        0.5616419911384583,
        0.4411270022392273
      ],
      "type": "VEC2"
    },
    {
      "bufferView": 0,
      "componentType": 5125,
      "count": 12768,
      "type": "SCALAR"
    },
    {
      "bufferView": 2,
      "byteOffset": 92880,
      "componentType": 5126,
      "count": 2688,
      "max": [
        115.31700134277344,
        48.27590560913086,
        61.21640396118164
      ],
      "min": [
        49.06642150878906,
        -46.130897521972656,
        1.356808066368103
      ],
      "type": "VEC3"
    },
    {
      "bufferView": 2,
      "byteOffset": 125136,
      "componentType": 5126,
      "count": 2688,
      "max": [
        0.9994979500770569,
        0.9999483227729797,
        0.9995774030685425
      ],
      "min": [
        -0.9994979500770569,
        -0.9998928904533386,
        -1.0
      ],
      "type": "VEC3"
    },
    {
      "bufferView": 3,
      "byteOffset": 61920,
      "componentType": 5126,
      "count": 2688,
      "max": [
        0.9993877410888672,
        0.9995773434638977,
        0.9994320273399353,
        1.0
      ],
      "min": [
        -0.9993877410888672,
        -1.0,
        -0.999948263168335,
        -1.0
      ],
      "type": "VEC4"
    },
    {
      "bufferView": 1,
      "byteOffset": 30960,
      "componentType": 5126,
      "count": 2688,
      "max": [
        0.26802700757980347,
        0.3723819851875305
      ],
      "min": [
        0.007431999780237675,
        0.011177999898791313
      ],
      "type": "VEC2"
    },
    {
      "bufferView": 0,
      "byteOffset": 51072,
      "componentType": 5125,
      "count": 14304,
      "type": "SCALAR"
    },
    {
      "bufferView": 2,
      "byteOffset": 157392,
      "componentType": 5126,
      "count": 2182,
      "max": [
        104.38648986816406,
        62.36183166503906,
        90.9288558959961
      ],
      "min": [
        -29.715957641601563,
        -73.05813598632813,
        -17.01595115661621
      ],
      "type": "VEC3"
    },
    {
      "bufferView": 2,
      "byteOffset": 183576,
      "componentType": 5126,
      "count": 2182,
      "max": [
        0.9998317360877991,
        0.9992099404335022,
        0.9999918341636658
      ],
      "min": [
        -0.9993385672569275,
        -0.9988219141960144,
        -0.9999999403953552
      ],
      "type": "VEC3"
    },
    {
      "bufferView": 3,
      "byteOffset": 104928,
      "componentType": 5126,
      "count": 2182,
      "max": [
        0.9999648928642273,
        0.9998834729194641,
        0.9995234608650208,
        1.0
      ],
      "min": [
        -0.9999716877937317,
        -0.9991745352745056,
        -0.9998077154159546,
        -1.0
      ],
      "type": "VEC4"
    },
    {
      "bufferView": 1,
      "byteOffset": 52464,
      "componentType": 5126,
      "count": 2182,
      "max": [
        0.6070320010185242,
        0.25687599182128906
      ],
      "min": [
        0.350492000579834,
        0.006901999935507774
      ],
      "type": "VEC2"
    },
    {
      "bufferView": 0,
      "byteOffset": 108288,
      "componentType": 5125,
      "count": 11808,
      "type": "SCALAR"
    },
    {
      "bufferView": 2,
      "byteOffset": 209760,
      "componentType": 5126,
      "count": 1250,
      "max": [
        679.5672607421875,
        104.62091064453125,
        10.369609832763672
      ],
      "min": [
        525.3757934570313,
        -49.82400131225586,
        -35.61589813232422
      ],
      "type": "VEC3"
    },
    {
      "bufferView": 2,
      "byteOffset": 224760,
      "componentType": 5126,
      "count": 1250,
      "max": [
        0.998630702495575,
        0.997704267501831,
        0.996840238571167
      ],
      "min": [
        -0.9961354732513428,
        -0.9959378242492676,
        -0.9992109537124634
      ],
      "type": "VEC3"
    },
    {
      "bufferView": 3,
      "byteOffset": 139840,
      "componentType": 5126,
      "count": 1250,
      "max": [
        0.9970592260360718,
        0.9999843239784241,
        0.9988848567008972,
        1.0
      ],
      "min": [
        -0.7880488634109497,
        -0.5793552994728088,
        -0.9962999820709229,
        1.0
      ],
      "type": "VEC4"
    },
    {
      "bufferView": 1,
      "byteOffset": 69920,
      "componentType": 5126,
      "count": 1250,
      "max": [
        0.549659013748169,
        0.9859520196914673
      ],
      "min": [
        0.15838900208473206,
        0.5878250002861023
      ],
      "type": "VEC2"
    },
    {
      "bufferView": 0,
      "byteOffset": 155520,
      "componentType": 5125,
      "count": 5760,
      "type": "SCALAR"
    },
    {
      "bufferView": 2,
      "byteOffset": 239760,
      "componentType": 5126,
      "count": 2800,
      "max": [
        417.8000793457031,
        113.01460266113281,
        34.58209991455078
      ],
      "min": [
        288.0809020996094,
        -149.25071716308594,
        1.7337000370025635
      ],
      "type": "VEC3"
    },
    {
      "bufferView": 2,
      "byteOffset": 273360,
      "componentType": 5126,
      "count": 2800,
      "max": [
        0.999999463558197,
        0.9989166259765625,
        0.9999942779541016
      ],
      "min": [
        -0.9999997615814209,
        -1.0,
        -0.9999964833259583
      ],
      "type": "VEC3"
    },
    {
      "bufferView": 3,
      "byteOffset": 159840,
      "componentType": 5126,
      "count": 2800,
      "max": [
        0.9999969005584717,
        0.7516056895256042,
        0.9999971389770508,
        1.0
      ],
      "min": [
        -0.9999942779541016,
        -0.99997878074646,
        -0.9999992847442627,
        1.0
      ],
      "type": "VEC4"
    },
    {
      "bufferView": 1,
      "byteOffset": 79920,
      "componentType": 5126,
      "count": 2800,
      "max": [
        0.415569007396698,
        0.7815930247306824
      ],
      "min": [
        0.007699999958276749,
        0.3792000114917755
      ],
      "type": "VEC2"
    },
    {
      "bufferView": 0,
      "byteOffset": 178560,
      "componentType": 5125,
      "count": 14784,
      "type": "SCALAR"
    },
    {
      "bufferView": 2,
      "byteOffset": 306960,
      "componentType": 5126,
      "count": 1405,
      "max": [
        19.980600357055664,
        12.784899711608887,
        38.92470169067383
      ],
      "min": [
        -19.583099365234375,
        -12.784899711608887,
        -0.17949000000953674
      ],
      "type": "VEC3"
    },
    {
      "bufferView": 2,
      "byteOffset": 323820,
      "componentType": 5126,
      "count": 1405,
      "max": [
        0.9978443384170532,
        0.9989979267120361,
        1.0
      ],
      "min": [
        -0.9981710314750671,
        -0.9989979267120361,
        -0.9999927878379822
      ],
      "type": "VEC3"
    },
    {
      "bufferView": 3,
      "byteOffset": 204640,
      "componentType": 5126,
      "count": 1405,
      "max": [
        0.9986602663993835,
        0.9999666213989258,
        0.9922357201576233,
        1.0
      ],
      "min": [
        -0.9993294477462769,
        -0.9999530911445618,
        -0.9672564268112183,
        1.0
      ],
      "type": "VEC4"
    },
    {
      "bufferView": 1,
      "byteOffset": 102320,
      "componentType": 5126,
      "count": 1405,
      "max": [
        0.994113028049469,
        0.40708601474761963
      ],
      "min": [
        0.5845280289649963,
        0.006157999858260155
      ],
      "type": "VEC2"
    },
    {
      "bufferView": 0,
      "byteOffset": 237696,
      "componentType": 5125,
      "count": 7428,
      "type": "SCALAR"
    },
    {
      "bufferView": 2,
      "byteOffset": 340680,
      "componentType": 5126,
      "count": 1405,
      "max": [
        19.980600357055664,
        12.784899711608887,
        38.92470169067383
      ],
      "min": [
        -19.583099365234375,
        -12.784899711608887,
        -0.17949000000953674
      ],
      "type": "VEC3"
    },
    {
      "bufferView": 2,
      "byteOffset": 357540,
      "componentType": 5126,
      "count": 1405,
      "max": [
        0.9978443384170532,
        0.9989979267120361,
        1.0
      ],
      "min": [
        -0.9981710314750671,
        -0.9989979267120361,
        -0.9999927878379822
      ],
      "type": "VEC3"
    },
    {
      "bufferView": 3,
      "byteOffset": 227120,
      "componentType": 5126,
      "count": 1405,
      "max": [
        0.9986602663993835,
        0.9999666213989258,
        0.9922357201576233,
        1.0
      ],
      "min": [
        -0.9993294477462769,
        -0.9999530911445618,
        -0.9672564268112183,
        1.0
      ],
      "type": "VEC4"
    },
    {
      "bufferView": 1,
      "byteOffset": 113560,
      "componentType": 5126,
      "count": 1405,
      "max": [
        0.994113028049469,
        0.40708601474761963
      ],
      "min": [
        0.5845280289649963,
        0.006157999858260155
      ],
      "type": "VEC2"
    },
    {
      "bufferView": 0,
      "byteOffset": 267408,
      "componentType": 5125,
      "count": 7428,
      "type": "SCALAR"
    },
    {
      "bufferView": 2,
      "byteOffset": 374400,
      "componentType": 5126,
      "count": 1405,
      "max": [
        19.980600357055664,
        12.784899711608887,
        38.92470169067383
      ],
      "min": [
        -19.583099365234375,
        -12.784899711608887,
        -0.17949000000953674
      ],
      "type": "VEC3"
    },
    {
      "bufferView": 2,
      "byteOffset": 391260,
      "componentType": 5126,
      "count": 1405,
      "max": [
        0.9978443384170532,
        0.9989979267120361,
        1.0
      ],
      "min": [
        -0.9981710314750671,
        -0.9989979267120361,
        -0.9999927878379822
      ],
      "type": "VEC3"
    },
    {
      "bufferView": 3,
      "byteOffset": 249600,
      "componentType": 5126,
      "count": 1405,
      "max": [
        0.9986602663993835,
        0.9999666213989258,
        0.9922357201576233,
        1.0
      ],
      "min": [
        -0.9993294477462769,
        -0.9999530911445618,
        -0.9672564268112183,
        1.0
      ],
      "type": "VEC4"
    },
    {
      "bufferView": 1,
      "byteOffset": 124800,
      "componentType": 5126,
      "count": 1405,
      "max": [
        0.994113028049469,
        0.40708601474761963
      ],
      "min": [
        0.5845280289649963,
        0.006157999858260155
      ],
      "type": "VEC2"
    },
    {
      "bufferView": 0,
      "byteOffset": 297120,
      "componentType": 5125,
      "count": 7428,
      "type": "SCALAR"
    },
    {
      "bufferView": 2,
      "byteOffset": 408120,
      "componentType": 5126,
      "count": 1405,
      "max": [
        19.980600357055664,
        12.784899711608887,
        38.92470169067383
      ],
      "min": [
        -19.583099365234375,
        -12.784899711608887,
        -0.17949000000953674
      ],
      "type": "VEC3"
    },
    {
      "bufferView": 2,
      "byteOffset": 424980,
      "componentType": 5126,
      "count": 1405,
      "max": [
        0.9978443384170532,
        0.9989979267120361,
        1.0
      ],
      "min": [
        -0.9981710314750671,
        -0.9989979267120361,
        -0.9999927878379822
      ],
      "type": "VEC3"
    },
    {
      "bufferView": 3,
      "byteOffset": 272080,
      "componentType": 5126,
      "count": 1405,
      "max": [
        0.9986602663993835,
        0.9999666213989258,
        0.9922357201576233,
        1.0
      ],
      "min": [
        -0.9993294477462769,
        -0.9999530911445618,
        -0.9672564268112183,
        1.0
      ],
      "type": "VEC4"
    },
    {
      "bufferView": 1,
      "byteOffset": 136040,
      "componentType": 5126,
      "count": 1405,
      "max": [
        0.994113028049469,
        0.40708601474761963
      ],
      "min": [
        0.5845280289649963,
        0.006157999858260155
      ],
      "type": "VEC2"
    },
    {
      "bufferView": 0,
      "byteOffset": 326832,
      "componentType": 5125,
      "count": 7428,
      "type": "SCALAR"
    },
    {
      "bufferView": 2,
      "byteOffset": 441840,
      "componentType": 5126,
      "count": 55,
      "max": [
        170.84100341796875,
        6.67140007019043,
        22.513999938964844
      ],
      "min": [
        -4.229400157928467,
        -165.73939514160156,
        22.513999938964844
      ],
      "type": "VEC3"
    },
    {
      "bufferView": 2,
      "byteOffset": 442500,
      "componentType": 5126,
      "count": 55,
      "max": [
        0.0,
        -0.0,
        1.0
      ],
      "min": [
        0.0,
        -0.0,
        1.0
      ],
      "type": "VEC3"
    },
    {
      "bufferView": 1,
      "byteOffset": 147280,
      "componentType": 5126,
      "count": 55,
      "max": [
        0.9912089705467224,
        0.9919729828834534
      ],
      "min": [
        0.5159569978713989,
        0.5239359736442566
      ],
      "type": "VEC2"
    },
    {
      "bufferView": 0,
      "byteOffset": 356544,
      "componentType": 5125,
      "count": 270,
      "type": "SCALAR"
    },
    {
      "bufferView": 2,
      "byteOffset": 443160,
      "componentType": 5126,
      "count": 55,
      "max": [
        -32.73517990112305,
        -23.725509643554688,
        8.74899959564209
      ],
      "min": [
        -234.90652465820313,
        -357.1661071777344,
        8.74899959564209
      ],
      "type": "VEC3"
    },
    {
      "bufferView": 2,
      "byteOffset": 443820,
      "componentType": 5126,
      "count": 55,
      "max": [
        0.0,
        -0.0,
        1.0
      ],
      "min": [
        0.0,
        -0.0,
        1.0
      ],
      "type": "VEC3"
    },
    {
      "bufferView": 1,
      "byteOffset": 147720,
      "componentType": 5126,
      "count": 55,
      "max": [
        0.5541039705276489,
        0.9105089902877808
      ],
      "min": [
        0.005319000221788883,
        0.005319000221788883
      ],
      "type": "VEC2"
    },
    {
      "bufferView": 0,
      "byteOffset": 357624,
      "componentType": 5125,
      "count": 270,
      "type": "SCALAR"
    },
    {
      "bufferView": 2,
      "byteOffset": 444480,
      "componentType": 5126,
      "count": 55,
      "max": [
        170.84100341796875,
        6.67140007019043,
        22.513999938964844
      ],
      "min": [
        -4.229400157928467,
        -165.73939514160156,
        22.513999938964844
      ],
      "type": "VEC3"
    },
    {
      "bufferView": 2,
      "byteOffset": 445140,
      "componentType": 5126,
      "count": 55,
      "max": [
        0.0,
        -0.0,
        1.0
      ],
      "min": [
        0.0,
        -0.0,
        1.0
      ],
      "type": "VEC3"
    },
    {
      "bufferView": 1,
      "byteOffset": 148160,
      "componentType": 5126,
      "count": 55,
      "max": [
        0.9912089705467224,
        0.9919729828834534
      ],
      "min": [
        0.5159569978713989,
        0.5239359736442566
      ],
      "type": "VEC2"
    },
    {
      "bufferView": 0,
      "byteOffset": 358704,
      "componentType": 5125,
      "count": 270,
      "type": "SCALAR"
    },
    {
      "bufferView": 2,
      "byteOffset": 445800,
      "componentType": 5126,
      "count": 55,
      "max": [
        170.84100341796875,
        6.67140007019043,
        22.513999938964844
      ],
      "min": [
        -4.229400157928467,
        -165.73939514160156,
        22.513999938964844
      ],
      "type": "VEC3"
    },
    {
      "bufferView": 2,
      "byteOffset": 446460,
      "componentType": 5126,
      "count": 55,
      "max": [
        0.0,
        -0.0,
        1.0
      ],
      "min": [
        0.0,
        -0.0,
        1.0
      ],
      "type": "VEC3"
    },
    {
      "bufferView": 1,
      "byteOffset": 148600,
      "componentType": 5126,
      "count": 55,
      "max": [
        0.9912089705467224,
        0.9919729828834534
      ],
      "min": [
        0.5159569978713989,
        0.5239359736442566
      ],
      "type": "VEC2"
    },
    {
      "bufferView": 0,
      "byteOffset": 359784,
      "componentType": 5125,
      "count": 270,
      "type": "SCALAR"
    },
    {
      "bufferView": 2,
      "byteOffset": 447120,
      "componentType": 5126,
      "count": 55,
      "max": [
        170.84100341796875,
        6.67140007019043,
        22.513999938964844
      ],
      "min": [
        -4.229400157928467,
        -165.73939514160156,
        22.513999938964844
      ],
      "type": "VEC3"
    },
    {
      "bufferView": 2,
      "byteOffset": 447780,
      "componentType": 5126,
      "count": 55,
      "max": [
        0.0,
        -0.0,
        1.0
      ],
      "min": [
        0.0,
        -0.0,
        1.0
      ],
      "type": "VEC3"
    },
    {
      "bufferView": 1,
      "byteOffset": 149040,
      "componentType": 5126,
      "count": 55,
      "max": [
        0.9912089705467224,
        0.9919729828834534
      ],
      "min": [
        0.5159569978713989,
        0.5239359736442566
      ],
      "type": "VEC2"
    },
    {
      "bufferView": 0,
      "byteOffset": 360864,
      "componentType": 5125,
      "count": 270,
      "type": "SCALAR"
    },
    {
      "bufferView": 2,
      "byteOffset": 448440,
      "componentType": 5126,
      "count": 55,
      "max": [
        170.84100341796875,
        6.67140007019043,
        22.513999938964844
      ],
      "min": [
        -4.229400157928467,
        -165.73939514160156,
        22.513999938964844
      ],
      "type": "VEC3"
    },
    {
      "bufferView": 2,
      "byteOffset": 449100,
      "componentType": 5126,
      "count": 55,
      "max": [
        0.0,
        -0.0,
        1.0
      ],
      "min": [
        0.0,
        -0.0,
        1.0
      ],
      "type": "VEC3"
    },
    {
      "bufferView": 1,
      "byteOffset": 149480,
      "componentType": 5126,
      "count": 55,
      "max": [
        0.9912089705467224,
        0.9919729828834534
      ],
      "min": [
        0.5159569978713989,
        0.5239359736442566
      ],
      "type": "VEC2"
    },
    {
      "bufferView": 0,
      "byteOffset": 361944,
      "componentType": 5125,
      "count": 270,
      "type": "SCALAR"
    },
    {
      "bufferView": 2,
      "byteOffset": 449760,
      "componentType": 5126,
      "count": 55,
      "max": [
        170.84100341796875,
        6.67140007019043,
        22.513999938964844
      ],
      "min": [
        -4.229400157928467,
        -165.73939514160156,
        22.513999938964844
      ],
      "type": "VEC3"
    },
    {
      "bufferView": 2,
      "byteOffset": 450420,
      "componentType": 5126,
      "count": 55,
      "max": [
        0.0,
        -0.0,
        1.0
      ],
      "min": [
        0.0,
        -0.0,
        1.0
      ],
      "type": "VEC3"
    },
    {
      "bufferView": 1,
      "byteOffset": 149920,
      "componentType": 5126,
      "count": 55,
      "max": [
        0.9912089705467224,
        0.9919729828834534
      ],
      "min": [
        0.5159569978713989,
        0.5239359736442566
      ],
      "type": "VEC2"
    },
    {
      "bufferView": 0,
      "byteOffset": 363024,
      "componentType": 5125,
      "count": 270,
      "type": "SCALAR"
    },
    {
      "bufferView": 2,
      "byteOffset": 451080,
      "componentType": 5126,
      "count": 55,
      "max": [
        170.84100341796875,
        6.67140007019043,
        22.513999938964844
      ],
      "min": [
        -4.229400157928467,
        -165.73939514160156,
        22.513999938964844
      ],
      "type": "VEC3"
    },
    {
      "bufferView": 2,
      "byteOffset": 451740,
      "componentType": 5126,
      "count": 55,
      "max": [
        0.0,
        -0.0,
        1.0
      ],
      "min": [
        0.0,
        -0.0,
        1.0
      ],
      "type": "VEC3"
    },
    {
      "bufferView": 1,
      "byteOffset": 150360,
      "componentType": 5126,
      "count": 55,
      "max": [
        0.9912089705467224,
        0.9919729828834534
      ],
      "min": [
        0.5159569978713989,
        0.5239359736442566
      ],
      "type": "VEC2"
    },
    {
      "bufferView": 0,
      "byteOffset": 364104,
      "componentType": 5125,
      "count": 270,
      "type": "SCALAR"
    },
    {
      "bufferView": 4,
      "componentType": 5126,
      "count": 101,
      "max": [
        3.3333332538604736
      ],
      "min": [
        0.0
      ],
      "type": "SCALAR"
    },
    {
      "bufferView": 6,
      "componentType": 5126,
      "count": 101,
      "max": [
        -0.7024487257003784,
        -0.05436331033706665,
        -0.08102931082248688,
        0.7024487257003784
      ],
      "min": [
        -0.7185473442077637,
        -0.08102931082248688,
        -0.10647539794445038,
        0.6851257681846619
      ],
      "type": "VEC4"
    },
    {
      "bufferView": 4,
      "byteOffset": 404,
      "componentType": 5126,
      "count": 101,
      "max": [
        3.3333332538604736
      ],
      "min": [
        0.0
      ],
      "type": "SCALAR"
    },
    {
      "bufferView": 6,
      "byteOffset": 1616,
      "componentType": 5126,
      "count": 101,
      "max": [
        -0.6997485160827637,
        0.13424022495746613,
        0.10174503177404404,
        0.6997485160827637
      ],
      "min": [
        -0.7014877200126648,
        0.10174503177404404,
        0.06778953224420547,
        0.6966341137886047
      ],
      "type": "VEC4"
    },
    {
      "bufferView": 4,
      "byteOffset": 808,
      "componentType": 5126,
      "count": 101,
      "max": [
        3.3333332538604736
      ],
      "min": [
        0.0
      ],
      "type": "SCALAR"
    },
    {
      "bufferView": 6,
      "byteOffset": 3232,
      "componentType": 5126,
      "count": 101,
      "max": [
        -0.6467141509056091,
        -0.27474644780158997,
        -0.28593841195106506,
        0.6467141509056091
      ],
      "min": [
        -0.6664764881134033,
        -0.28593841195106506,
        -0.29619336128234863,
        0.6265723705291748
      ],
      "type": "VEC4"
    },
    {
      "bufferView": 4,
      "byteOffset": 1212,
      "componentType": 5126,
      "count": 101,
      "max": [
        3.3333332538604736
      ],
      "min": [
        0.0
      ],
      "type": "SCALAR"
    },
    {
      "bufferView": 6,
      "byteOffset": 4848,
      "componentType": 5126,
      "count": 101,
      "max": [
        -0.6766368746757507,
        -0.027969859540462494,
        -0.018386751413345337,
        0.7331432104110718
      ],
      "min": [
        -0.6986014246940613,
        -0.05313101410865784,
        -0.04290246590971947,
        0.7147276401519775
      ],
      "type": "VEC4"
    },
    {
      "bufferView": 4,
      "byteOffset": 1616,
      "componentType": 5126,
      "count": 101,
      "max": [
        3.3333332538604736
      ],
      "min": [
        0.0
      ],
      "type": "SCALAR"
    },
    {
      "bufferView": 6,
      "byteOffset": 6464,
      "componentType": 5126,
      "count": 101,
      "max": [
        -0.6890275478363037,
        -0.14784002304077148,
        -0.15887433290481567,
        0.6890275478363037
      ],
      "min": [
        -0.6975727677345276,
        -0.15887433290481567,
        -0.16958320140838623,
        0.6802772283554077
      ],
      "type": "VEC4"
    },
    {
      "bufferView": 4,
      "byteOffset": 2020,
      "componentType": 5126,
      "count": 101,
      "max": [
        3.3333332538604736
      ],
      "min": [
        0.0
      ],
      "type": "SCALAR"
    },
    {
      "bufferView": 6,
      "byteOffset": 8080,
      "componentType": 5126,
      "count": 101,
      "max": [
        0.539040207862854,
        0.49995169043540955,
        0.5390401482582092,
        0.5000000596046448
      ],
      "min": [
        -0.5000000596046448,
        -0.4999999701976776,
        -0.4999999701976776,
        -0.4999517500400543
      ],
      "type": "VEC4"
    },
    {
      "bufferView": 4,
      "byteOffset": 2424,
      "componentType": 5126,
      "count": 101,
      "max": [
        3.3333332538604736
      ],
      "min": [
        0.0
      ],
      "type": "SCALAR"
    },
    {
      "bufferView": 6,
      "byteOffset": 9696,
      "componentType": 5126,
      "count": 101,
      "max": [
        -0.4499741494655609,
        -0.4999999701976776,
        -0.49120423197746277,
        0.549946665763855
      ],
      "min": [
        -0.5000000596046448,
        -0.5037859678268433,
        -0.4999999701976776,
        0.5000000596046448
      ],
      "type": "VEC4"
    },
    {
      "bufferView": 4,
      "byteOffset": 2828,
      "componentType": 5126,
      "count": 101,
      "max": [
        3.3333332538604736
      ],
      "min": [
        0.0
      ],
      "type": "SCALAR"
    },
    {
      "bufferView": 6,
      "byteOffset": 11312,
      "componentType": 5126,
      "count": 101,
      "max": [
        0.5544493198394775,
        0.499992698431015,
        0.5000419020652771,
        0.5000000596046448
      ],
      "min": [
        -0.5000000596046448,
        -0.4999999701976776,
        -0.4999999701976776,
        -0.49993887543678284
      ],
      "type": "VEC4"
    },
    {
      "bufferView": 4,
      "byteOffset": 3232,
      "componentType": 5126,
      "count": 101,
      "max": [
        3.3333332538604736
      ],
      "min": [
        0.0
      ],
      "type": "SCALAR"
    },
    {
      "bufferView": 6,
      "byteOffset": 12928,
      "componentType": 5126,
      "count": 101,
      "max": [
        -0.47335386276245117,
        -0.4999999701976776,
        -0.4733538031578064,
        0.5252962708473206
      ],
      "min": [
        -0.5000000596046448,
        -0.5252962112426758,
        -0.4999999701976776,
        0.5000000596046448
      ],
      "type": "VEC4"
    },
    {
      "bufferView": 4,
      "byteOffset": 3636,
      "componentType": 5126,
      "count": 101,
      "max": [
        3.3333332538604736
      ],
      "min": [
        0.0
      ],
      "type": "SCALAR"
    },
    {
      "bufferView": 5,
      "componentType": 5126,
      "count": 101,
      "max": [
        1.2037715911865234,
        1.2037715911865234,
        1.2037715911865234
      ],
      "min": [
        1.0662891864776611,
        1.0662891864776611,
        1.0662891864776611
      ],
      "type": "VEC3"
    },
    {
      "bufferView": 4,
      "byteOffset": 4040,
      "componentType": 5126,
      "count": 101,
      "max": [
        3.3333332538604736
      ],
      "min": [
        0.0
      ],
      "type": "SCALAR"
    },
    {
      "bufferView": 5,
      "byteOffset": 1212,
      "componentType": 5126,
      "count": 101,
      "max": [
        1.2362014055252075,
        1.2362014055252075,
        1.2362014055252075
      ],
      "min": [
        1.104366421699524,
        1.104366421699524,
        1.104366421699524
      ],
      "type": "VEC3"
    },
    {
      "bufferView": 4,
      "byteOffset": 4444,
      "componentType": 5126,
      "count": 8,
      "max": [
        3.3333332538604736
      ],
      "min": [
        0.0
      ],
      "type": "SCALAR"
    },
    {
      "bufferView": 6,
      "byteOffset": 14544,
      "componentType": 5126,
      "count": 8,
      "max": [
        -0.6890275478363037,
        -0.15887433290481567,
        -0.15887433290481567,
        0.6890275478363037
      ],
      "min": [
        -0.6890275478363037,
        -0.15887433290481567,
        -0.15887433290481567,
        0.6890275478363037
      ],
      "type": "VEC4"
    },
    {
      "bufferView": 4,
      "byteOffset": 4476,
      "componentType": 5126,
      "count": 101,
      "max": [
        3.3333332538604736
      ],
      "min": [
        0.0
      ],
      "type": "SCALAR"
    },
    {
      "bufferView": 5,
      "byteOffset": 2424,
      "componentType": 5126,
      "count": 101,
      "max": [
        1.0515222549438477,
        1.0515222549438477,
        1.0515222549438477
      ],
      "min": [
        0.9314281940460205,
        0.9314281940460205,
        0.9314281940460205
      ],
      "type": "VEC3"
    },
    {
      "bufferView": 4,
      "byteOffset": 4880,
      "componentType": 5126,
      "count": 26,
      "max": [
        3.3333332538604736
      ],
      "min": [
        0.0
      ],
      "type": "SCALAR"
    },
    {
      "bufferView": 6,
      "byteOffset": 14672,
      "componentType": 5126,
      "count": 26,
      "max": [
        -0.7019705772399902,
        -0.08507240563631058,
        -0.08507240563631058,
        0.7019705772399902
      ],
      "min": [
        -0.7019705772399902,
        -0.08507240563631058,
        -0.08507240563631058,
        0.7019705772399902
      ],
      "type": "VEC4"
    },
    {
      "bufferView": 4,
      "byteOffset": 4984,
      "componentType": 5126,
      "count": 101,
      "max": [
        3.3333332538604736
      ],
      "min": [
        0.0
      ],
      "type": "SCALAR"
    },
    {
      "bufferView": 5,
      "byteOffset": 3636,
      "componentType": 5126,
      "count": 101,
      "max": [
        1.214298129081726,
        1.214298129081726,
        1.214298129081726
      ],
      "min": [
        1.0684540271759033,
        1.0684540271759033,
        1.0684540271759033
      ],
      "type": "VEC3"
    },
    {
      "bufferView": 4,
      "byteOffset": 5388,
      "componentType": 5126,
      "count": 101,
      "max": [
        3.3333332538604736
      ],
      "min": [
        0.0
      ],
      "type": "SCALAR"
    },
    {
      "bufferView": 5,
      "byteOffset": 4848,
      "componentType": 5126,
      "count": 101,
      "max": [
        1.2350854873657227,
        1.2350854873657227,
        1.2350854873657227
      ],
      "min": [
        1.0846247673034668,
        1.0846247673034668,
        1.0846247673034668
      ],
      "type": "VEC3"
    },
    {
      "bufferView": 4,
      "byteOffset": 5792,
      "componentType": 5126,
      "count": 101,
      "max": [
        3.3333332538604736
      ],
      "min": [
        0.0
      ],
      "type": "SCALAR"
    },
    {
      "bufferView": 5,
      "byteOffset": 6060,
      "componentType": 5126,
      "count": 101,
      "max": [
        0.6106119751930237,
        0.6106119751930237,
        0.6106119751930237
      ],
      "min": [
        0.49168556928634644,
        0.49168556928634644,
        0.49168556928634644
      ],
      "type": "VEC3"
    },
    {
      "bufferView": 4,
      "byteOffset": 6196,
      "componentType": 5126,
      "count": 101,
      "max": [
        3.3333332538604736
      ],
      "min": [
        0.0
      ],
      "type": "SCALAR"
    },
    {
      "bufferView": 5,
      "byteOffset": 7272,
      "componentType": 5126,
      "count": 101,
      "max": [
        0.9968976974487305,
        0.7006017565727234,
        0.8274859189987183
      ],
      "min": [
        0.9513893127441406,
        0.6686197519302368,
        0.7897113561630249
      ],
      "type": "VEC3"
    },
    {
      "bufferView": 4,
      "byteOffset": 6600,
      "componentType": 5126,
      "count": 101,
      "max": [
        3.3333332538604736
      ],
      "min": [
        0.0
      ],
      "type": "SCALAR"
    },
    {
      "bufferView": 5,
      "byteOffset": 8484,
      "componentType": 5126,
      "count": 101,
      "max": [
        0.49863702058792114,
        0.5318695306777954,
        0.8071977496147156
      ],
      "min": [
        0.47587448358535767,
        0.5075899362564087,
        0.7703495025634766
      ],
      "type": "VEC3"
    },
    {
      "bufferView": 4,
      "byteOffset": 7004,
      "componentType": 5126,
      "count": 14,
      "max": [
        3.3333332538604736
      ],
      "min": [
        0.0
      ],
      "type": "SCALAR"
    },
    {
      "bufferView": 6,
      "byteOffset": 15088,
      "componentType": 5126,
      "count": 14,
      "max": [
        -0.6438210606575012,
        -0.29239434003829956,
        -0.29239434003829956,
        0.6438210606575012
      ],
      "min": [
        -0.6438210606575012,
        -0.29239434003829956,
        -0.29239434003829956,
        0.6438210606575012
      ],
      "type": "VEC4"
    }
  ],
  "animations": [
    {
      "channels": [
        {
          "sampler": 0,
          "target": {
            "node": 4,
            "path": "rotation"
          }
        },
        {
          "sampler": 1,
          "target": {
            "node": 7,
            "path": "rotation"
          }
        },
        {
          "sampler": 2,
          "target": {
            "node": 10,
            "path": "rotation"
          }
        },
        {
          "sampler": 3,
          "target": {
            "node": 13,
            "path": "rotation"
          }
        },
        {
          "sampler": 4,
          "target": {
            "node": 16,
            "path": "rotation"
          }
        },
        {
          "sampler": 5,
          "target": {
            "node": 19,
            "path": "rotation"
          }
        },
        {
          "sampler": 6,
          "target": {
            "node": 22,
            "path": "rotation"
          }
        },
        {
          "sampler": 7,
          "target": {
            "node": 25,
            "path": "rotation"
          }
        },
        {
          "sampler": 8,
          "target": {
            "node": 28,
            "path": "rotation"
          }
        },
        {
          "sampler": 9,
          "target": {
            "node": 31,
            "path": "scale"
          }
        },
        {
          "sampler": 10,
          "target": {
            "node": 34,
            "path": "scale"
          }
        },
        {
          "sampler": 11,
          "target": {
            "node": 34,
            "path": "rotation"
          }
        },
        {
          "sampler": 12,
          "target": {
            "node": 37,
            "path": "scale"
          }
        },
        {
          "sampler": 13,
          "target": {
            "node": 37,
            "path": "rotation"
          }
        },
        {
          "sampler": 14,
          "target": {
            "node": 40,
            "path": "scale"
          }
        },
        {
          "sampler": 15,
          "target": {
            "node": 43,
            "path": "scale"
          }
        },
        {
          "sampler": 16,
          "target": {
            "node": 46,
            "path": "scale"
          }
        },
        {
          "sampler": 17,
          "target": {
            "node": 49,
            "path": "scale"
          }
        },
        {
          "sampler": 18,
          "target": {
            "node": 52,
            "path": "scale"
          }
        },
        {
          "sampler": 19,
          "target": {
            "node": 52,
            "path": "rotation"
          }
        }
      ],
      "name": "Take 001",
      "samplers": [
        {
          "input": 77,
          "interpolation": "LINEAR",
          "output": 78
        },
        {
          "input": 79,
          "interpolation": "LINEAR",
          "output": 80
        },
        {
          "input": 81,
          "interpolation": "LINEAR",
          "output": 82
        },
        {
          "input": 83,
          "interpolation": "LINEAR",
          "output": 84
        },
        {
          "input": 85,
          "interpolation": "LINEAR",
          "output": 86
        },
        {
          "input": 87,
          "interpolation": "LINEAR",
          "output": 88
        },
        {
          "input": 89,
          "interpolation": "LINEAR",
          "output": 90
        },
        {
          "input": 91,
          "interpolation": "LINEAR",
          "output": 92
        },
        {
          "input": 93,
          "interpolation": "LINEAR",
          "output": 94
        },
        {
          "input": 95,
          "interpolation": "LINEAR",
          "output": 96
        },
        {
          "input": 97,
          "interpolation": "LINEAR",
          "output": 98
        },
        {
          "input": 99,
          "interpolation": "LINEAR",
          "output": 100
        },
        {
          "input": 101,
          "interpolation": "LINEAR",
          "output": 102
        },
        {
          "input": 103,
          "interpolation": "LINEAR",
          "output": 104
        },
        {
          "input": 105,
          "interpolation": "LINEAR",
          "output": 106
        },
        {
          "input": 107,
          "interpolation": "LINEAR",
          "output": 108
        },
        {
          "input": 109,
          "interpolation": "LINEAR",
          "output": 110
        },
        {
          "input": 111,
          "interpolation": "LINEAR",
          "output": 112
        },
        {
          "input": 113,
          "interpolation": "LINEAR",
          "output": 114
        },
        {
          "input": 115,
          "interpolation": "LINEAR",
          "output": 116
        }
      ]
    }
  ],
  "asset": {
    "extras": {
      "author": "arloopa (https://sketchfab.com/arloopa)",
      "license": "CC-BY-4.0 (http://creativecommons.org/licenses/by/4.0/)",
      "source": "https://sketchfab.com/3d-models/pool-float-764914c4e5a14df4bdee6dde8429a325",
      "title": "Pool Float"
    },
    "generator": "Sketchfab-16.59.0",
    "version": "2.0"
  },
  "bufferViews": [
    {
      "buffer": 0,
      "byteLength": 365184,
      "name": "floatBufferViews",
      "target": 34963
    },
    {
      "buffer": 0,
      "byteLength": 150800,
      "byteOffset": 365184,
      "byteStride": 8,
      "name": "floatBufferViews",
      "target": 34962
    },
    {
      "buffer": 0,
      "byteLength": 452400,
      "byteOffset": 515984,
      "byteStride": 12,
      "name": "floatBufferViews",
      "target": 34962
    },
    {
      "buffer": 0,
      "byteLength": 294560,
      "byteOffset": 968384,
      "byteStride": 16,
      "name": "floatBufferViews",
      "target": 34962
    },
    {
      "buffer": 0,
      "byteLength": 7060,
      "byteOffset": 1262944,
      "name": "floatBufferViews"
    },
    {
      "buffer": 0,
      "byteLength": 9696,
      "byteOffset": 1270004,
      "byteStride": 12,
      "name": "floatBufferViews"
    },
    {
      "buffer": 0,
      "byteLength": 15312,
      "byteOffset": 1279700,
      "byteStride": 16,
      "name": "floatBufferViews"
    }
  ],
  "buffers": [
    {
      "byteLength": 1295012,
      "uri": "scene.bin"
    }
  ],
  "images": [
    {
      "uri": "textures/material_baseColor.png"
    },
    {
      "uri": "textures/material_metallicRoughness.png"
    },
    {
      "uri": "textures/material_normal.png"
    },
    {
      "uri": "textures/material_1_baseColor.png"
    },
    {
      "uri": "textures/material_1_emissive.png"
    }
  ],
  "materials": [
    {
      "doubleSided": true,
      "name": "material",
      "normalTexture": {
        "index": 2
      },
      "pbrMetallicRoughness": {
        "baseColorTexture": {
          "index": 0
        },
        "metallicFactor": 0.0,
        "metallicRoughnessTexture": {
          "index": 1
        }
      }
    },
    {
      "alphaMode": "BLEND",
      "doubleSided": true,
      "emissiveFactor": [
        1.0,
        1.0,
        1.0
      ],
      "emissiveTexture": {
        "index": 4
      },
      "name": "material_1",
      "pbrMetallicRoughness": {
        "baseColorTexture": {
          "index": 3
        },
        "metallicFactor": 0.0,
        "roughnessFactor": 0.6
      }
    }
  ],
  "meshes": [
    {
      "name": "object_1_0",
      "primitives": [
        {
          "attributes": {
            "NORMAL": 1,
            "POSITION": 0,
            "TANGENT": 2,
            "TEXCOORD_0": 3
          },
          "indices": 4,
          "material": 0,
          "mode": 4
        }
      ]
    },
    {
      "name": "Object002_1_0",
      "primitives": [
        {
          "attributes": {
            "NORMAL": 6,
            "POSITION": 5,
            "TANGENT": 7,
            "TEXCOORD_0": 8
          },
          "indices": 9,
          "material": 0,
          "mode": 4
        }
      ]
    },
    {
      "name": "Object004_1_0",
      "primitives": [
        {
          "attributes": {
            "NORMAL": 11,
            "POSITION": 10,
            "TANGENT": 12,
            "TEXCOORD_0": 13
          },
          "indices": 14,
          "material": 0,
          "mode": 4
        }
      ]
    },
    {
      "name": "Object005_1_0",
      "primitives": [
        {
          "attributes": {
            "NORMAL": 16,
            "POSITION": 15,
            "TANGENT": 17,
            "TEXCOORD_0": 18
          },
          "indices": 19,
          "material": 0,
          "mode": 4
        }
      ]
    },
    {
      "name": "Object006_1_0",
      "primitives": [
        {
          "attributes": {
            "NORMAL": 21,
            "POSITION": 20,
            "TANGENT": 22,
            "TEXCOORD_0": 23
          },
          "indices": 24,
          "material": 0,
          "mode": 4
        }
      ]
    },
    {
      "name": "Object007_1_0",
      "primitives": [
        {
          "attributes": {
            "NORMAL": 26,
            "POSITION": 25,
            "TANGENT": 27,
            "TEXCOORD_0": 28
          },
          "indices": 29,
          "material": 0,
          "mode": 4
        }
      ]
    },
    {
      "name": "Object008_1_0",
      "primitives": [
        {
          "attributes": {
            "NORMAL": 31,
            "POSITION": 30,
            "TANGENT": 32,
            "TEXCOORD_0": 33
          },
          "indices": 34,
          "material": 0,
          "mode": 4
        }
      ]
    },
    {
      "name": "Object009_1_0",
      "primitives": [
        {
          "attributes": {
            "NORMAL": 36,
            "POSITION": 35,
            "TANGENT": 37,
            "TEXCOORD_0": 38
          },
          "indices": 39,
          "material": 0,
          "mode": 4
        }
      ]
    },
    {
      "name": "Object010_1_0",
      "primitives": [
        {
          "attributes": {
            "NORMAL": 41,
            "POSITION": 40,
            "TANGENT": 42,
            "TEXCOORD_0": 43
          },
          "indices": 44,
          "material": 0,
          "mode": 4
        }
      ]
    },
    {
      "name": "Cylinder001_2_0",
      "primitives": [
        {
          "attributes": {
            "NORMAL": 46,
            "POSITION": 45,
            "TEXCOORD_0": 47
          },
          "indices": 48,
          "material": 1,
          "mode": 4
        }
      ]
    },
    {
      "name": "Cylinder002_2_0",
      "primitives": [
        {
          "attributes": {
            "NORMAL": 50,
            "POSITION": 49,
            "TEXCOORD_0": 51
          },
          "indices": 52,
          "material": 1,
          "mode": 4
        }
      ]
    },
    {
      "name": "Cylinder003_2_0",
      "primitives": [
        {
          "attributes": {
            "NORMAL": 54,
            "POSITION": 53,
            "TEXCOORD_0": 55
          },
          "indices": 56,
          "material": 1,
          "mode": 4
        }
      ]
    },
    {
      "name": "Cylinder004_2_0",
      "primitives": [
        {
          "attributes": {
            "NORMAL": 58,
            "POSITION": 57,
            "TEXCOORD_0": 59
          },
          "indices": 60,
          "material": 1,
          "mode": 4
        }
      ]
    },
    {
      "name": "Cylinder005_2_0",
      "primitives": [
        {
          "attributes": {
            "NORMAL": 62,
            "POSITION": 61,
            "TEXCOORD_0": 63
          },
          "indices": 64,
          "material": 1,
          "mode": 4
        }
      ]
    },
    {
      "name": "Cylinder006_2_0",
      "primitives": [
        {
          "attributes": {
            "NORMAL": 66,
            "POSITION": 65,
            "TEXCOORD_0": 67
          },
          "indices": 68,
          "material": 1,
          "mode": 4
        }
      ]
    },
    {
      "name": "Cylinder007_2_0",
      "primitives": [
        {
          "attributes": {
            "NORMAL": 70,
            "POSITION": 69,
            "TEXCOORD_0": 71
          },
          "indices": 72,
          "material": 1,
          "mode": 4
        }
      ]
    },
    {
      "name": "Cylinder008_2_0",
      "primitives": [
        {
          "attributes": {
            "NORMAL": 74,
            "POSITION": 73,
            "TEXCOORD_0": 75
          },
          "indices": 76,
          "material": 1,
          "mode": 4
        }
      ]
    }
  ],
  "nodes": [
    {
      "children": [
        1
      ],
      "matrix": [
        1.0,
        0.0,
        0.0,
        0.0,
        0.0,
        2.220446049250313e-16,
        -1.0,
        0.0,
        0.0,
        1.0,
        2.220446049250313e-16,
        0.0,
        0.0,
        0.0,
        0.0,
        1.0
      ],
      "name": "Sketchfab_model"
    },
    {
      "children": [
        2
      ],
      "matrix": [
        0.02539999969303608,
        0.0,
        0.0,
        0.0,
        0.0,
        0.0,
        0.02539999969303608,
        0.0,
        0.0,
        -0.02539999969303608,
        0.0,
        0.0,
        0.0,
        0.0,
        0.0,
        1.0
      ],
      "name": "44e55baca1e346e69bb13929821baadd.fbx"
    },
    {
      "children": [
        3
      ],
      "name": "Object_2"
    },
    {
      "children": [
        4,
        7,
        10,
        13,
        16,
        19,
        22,
        25,
        28,
        31,
        34,
        37,
        40,
        43,
        46,
        49,
        52
      ],
      "name": "RootNode"
    },
    {
      "children": [
        5
      ],
      "name": "object",
      "rotation": [
        -0.7024487853050232,
        -0.08102931827306747,
        -0.08102931827306747,
        0.7024487853050232
      ],
      "scale": [
        0.8468189835548401,
        0.8468189835548401,
        0.8468189835548401
      ],
      "translation": [
        202.70025634765625,
        -3.6019821166992188,
        -103.03472900390625
      ]
    },
    {
      "children": [
        6
      ],
      "matrix": [
        1.0,
        0.0,
        -0.0,
        0.0,
        0.0,
        1.0,
        0.0,
        0.0,
        0.0,
        0.0,
        1.0,
        0.0,
        -144.25265502929688,
        0.6198539733886719,
        -65.81829833984375,
        1.0
      ],
      "name": "Object_5"
    },
    {
      "mesh": 0,
      "name": "object_1_0"
    },
    {
      "children": [
        8
      ],
      "name": "Object002",
      "rotation": [
        -0.6997485160827637,
        0.10174503177404404,
        0.10174503177404404,
        0.6997485160827637
      ],
      "scale": [
        1.4256999492645264,
        1.4256999492645264,
        1.4256999492645264
      ],
      "translation": [
        35.6359977722168,
        -9.328998565673828,
        -202.32762145996094
      ]
    },
    {
      "children": [
        9
      ],
      "matrix": [
        1.0,
        0.0,
        -0.0,
        0.0,
        0.0,
        1.0,
        0.0,
        0.0,
        0.0,
        0.0,
        1.0,
        0.0,
        -82.19171142578125,
        -1.0725040435791016,
        -31.286605834960938,
        1.0
      ],
      "name": "Object_8"
    },
    {
      "mesh": 1,
      "name": "Object002_1_0"
    },
    {
      "children": [
        11
      ],
      "name": "Object004",
      "rotation": [
        -0.6467141509056091,
        -0.28593841195106506,
        -0.28593841195106506,
        0.6467141509056091
      ],
      "scale": [
        0.7690929770469666,
        0.7690929770469666,
        0.7690929770469666
      ],
      "translation": [
        -133.45343017578125,
        -11.718002319335938,
        -160.18418884277344
      ]
    },
    {
      "children": [
        12
      ],
      "matrix": [
        1.0,
        0.0,
        -0.0,
        0.0,
        0.0,
        1.0,
        0.0,
        0.0,
        0.0,
        0.0,
        1.0,
        0.0,
        -37.33526611328125,
        5.348152160644531,
        -36.956451416015625,
        1.0
      ],
      "name": "Object_11"
    },
    {
      "mesh": 2,
      "name": "Object004_1_0"
    },
    {
      "children": [
        14
      ],
      "name": "Object005",
      "rotation": [
        -0.698601484298706,
        -0.02796986512839794,
        -0.018386755138635635,
        0.7147276997566223
      ],
      "scale": [
        0.7293699979782104,
        0.7293699979782104,
        0.7293699979782104
      ],
      "translation": [
        140.16226196289063,
        -41.7720947265625,
        77.33118438720703
      ]
    },
    {
      "children": [
        15
      ],
      "matrix": [
        1.0,
        0.0,
        -0.0,
        0.0,
        0.0,
        1.0,
        0.0,
        0.0,
        0.0,
        0.0,
        1.0,
        0.0,
        -602.4715576171875,
        -27.398454666137695,
        12.623144149780273,
        1.0
      ],
      "name": "Object_14"
    },
    {
      "mesh": 3,
      "name": "Object005_1_0"
    },
    {
      "children": [
        17
      ],
      "name": "Object006",
      "rotation": [
        -0.6890275478363037,
        -0.15887434780597687,
        -0.15887434780597687,
        0.6890275478363037
      ],
      "scale": [
        0.9281600117683411,
        0.9281600117683411,
        0.9281600117683411
      ],
      "translation": [
        -31.260711669921875,
        -32.52564239501953,
        34.676055908203125
      ]
    },
    {
      "children": [
        18
      ],
      "matrix": [
        1.0,
        0.0,
        -0.0,
        0.0,
        0.0,
        1.0,
        0.0,
        0.0,
        0.0,
        0.0,
        1.0,
        0.0,
        -352.9404602050781,
        18.118059158325195,
        -18.157899856567383,
        1.0
      ],
      "name": "Object_17"
    },
    {
      "mesh": 4,
      "name": "Object006_1_0"
    },
    {
      "children": [
        20
      ],
      "name": "Object007",
      "rotation": [
        -0.5000000596046448,
        -0.4999999701976776,
        -0.4999999701976776,
        0.5000000596046448
      ],
      "scale": [
        0.7031840085983276,
        0.7031840085983276,
        0.7031840085983276
      ],
      "translation": [
        73.17958068847656,
        -29.69012451171875,
        -55.06907653808594
      ]
    },
    {
      "children": [
        21
      ],
      "matrix": [
        1.0,
        0.0,
        -0.0,
        0.0,
        0.0,
        1.0,
        0.0,
        0.0,
        0.0,
        0.0,
        1.0,
        0.0,
        -0.19875049591064453,
        0.0,
        -19.37260627746582,
        1.0
      ],
      "name": "Object_20"
    },
    {
      "mesh": 5,
      "name": "Object007_1_0"
    },
    {
      "children": [
        23
      ],
      "name": "Object008",
      "rotation": [
        -0.5000000596046448,
        -0.4999999701976776,
        -0.4999999701976776,
        0.5000000596046448
      ],
      "scale": [
        0.7031840085983276,
        0.7031840085983276,
        0.7031840085983276
      ],
      "translation": [
        -31.34900665283203,
        -29.89246368408203,
        -104.71437072753906
      ]
    },
    {
      "children": [
        24
      ],
      "matrix": [
        1.0,
        0.0,
        -0.0,
        0.0,
        0.0,
        1.0,
        0.0,
        0.0,
        0.0,
        0.0,
        1.0,
        0.0,
        -0.19875049591064453,
        0.0,
        -19.37260627746582,
        1.0
      ],
      "name": "Object_23"
    },
    {
      "mesh": 6,
      "name": "Object008_1_0"
    },
    {
      "children": [
        26
      ],
      "name": "Object009",
      "rotation": [
        -0.5000000596046448,
        -0.4999999701976776,
        -0.4999999701976776,
        0.5000000596046448
      ],
      "scale": [
        0.7031840085983276,
        0.7031840085983276,
        0.7031840085983276
      ],
      "translation": [
        -128.48068237304688,
        -31.821449279785156,
        -21.316986083984375
      ]
    },
    {
      "children": [
        27
      ],
      "matrix": [
        1.0,
        0.0,
        -0.0,
        0.0,
        0.0,
        1.0,
        0.0,
        0.0,
        0.0,
        0.0,
        1.0,
        0.0,
        -0.19875049591064453,
        0.0,
        -19.37260627746582,
        1.0
      ],
      "name": "Object_26"
    },
    {
      "mesh": 7,
      "name": "Object009_1_0"
    },
    {
      "children": [
        29
      ],
      "name": "Object010",
      "rotation": [
        -0.5000000596046448,
        -0.4999999701976776,
        -0.4999999701976776,
        0.5000000596046448
      ],
      "scale": [
        0.7031840085983276,
        0.7031840085983276,
        0.7031840085983276
      ],
      "translation": [
        -101.6414794921875,
        -29.562782287597656,
        1.284454345703125
      ]
    },
    {
      "children": [
        30
      ],
      "matrix": [
        1.0,
        0.0,
        -0.0,
        0.0,
        0.0,
        1.0,
        0.0,
        0.0,
        0.0,
        0.0,
        1.0,
        0.0,
        -0.19875049591064453,
        0.0,
        -19.37260627746582,
        1.0
      ],
      "name": "Object_29"
    },
    {
      "mesh": 8,
      "name": "Object010_1_0"
    },
    {
      "children": [
        32
      ],
      "name": "Cylinder001",
      "rotation": [
        -0.7071068286895752,
        -0.0,
        0.0,
        0.7071068286895752
      ],
      "scale": [
        1.203771948814392,
        1.203771948814392,
        1.203771948814392
      ],
      "translation": [
        202.71945190429688,
        -45.18497085571289,
        -103.02986145019531
      ]
    },
    {
      "children": [
        33
      ],
      "matrix": [
        1.0,
        0.0,
        -0.0,
        0.0,
        0.0,
        1.0,
        0.0,
        0.0,
        0.0,
        0.0,
        1.0,
        0.0,
        -83.30580139160156,
        79.53399658203125,
        -22.514049530029297,
        1.0
      ],
      "name": "Object_32"
    },
    {
      "mesh": 9,
      "name": "Cylinder001_2_0"
    },
    {
      "children": [
        35
      ],
      "name": "Cylinder002",
      "rotation": [
        -0.6890275478363037,
        -0.15887433290481567,
        -0.15887433290481567,
        0.6890275478363037
      ],
      "scale": [
        1.2362010478973389,
        1.2362010478973389,
        1.2362010478973389
      ],
      "translation": [
        -39.337554931640625,
        -41.934486389160156,
        32.81367492675781
      ]
    },
    {
      "children": [
        36
      ],
      "matrix": [
        1.0,
        0.0,
        -0.0,
        0.0,
        0.0,
        1.0,
        0.0,
        0.0,
        0.0,
        0.0,
        1.0,
        0.0,
        133.82086181640625,
        190.44578552246094,
        -8.74905014038086,
        1.0
      ],
      "name": "Object_35"
    },
    {
      "mesh": 10,
      "name": "Cylinder002_2_0"
    },
    {
      "children": [
        38
      ],
      "name": "Cylinder003",
      "rotation": [
        -0.7019705772399902,
        -0.08507240563631058,
        -0.08507240563631058,
        0.7019705772399902
      ],
      "scale": [
        1.0515220165252686,
        1.0515220165252686,
        1.0515220165252686
      ],
      "translation": [
        34.908138275146484,
        -41.582977294921875,
        -199.26832580566406
      ]
    },
    {
      "children": [
        39
      ],
      "matrix": [
        1.0,
        0.0,
        -0.0,
        0.0,
        0.0,
        1.0,
        0.0,
        0.0,
        0.0,
        0.0,
        1.0,
        0.0,
        -83.30580139160156,
        79.53398132324219,
        -22.514053344726563,
        1.0
      ],
      "name": "Object_38"
    },
    {
      "mesh": 11,
      "name": "Cylinder003_2_0"
    },
    {
      "children": [
        41
      ],
      "name": "Cylinder004",
      "rotation": [
        -0.7071068286895752,
        -0.0,
        0.0,
        0.7071068286895752
      ],
      "scale": [
        1.2142980098724365,
        1.2142980098724365,
        1.2142980098724365
      ],
      "translation": [
        -133.81251525878906,
        -41.582977294921875,
        -160.97315979003906
      ]
    },
    {
      "children": [
        42
      ],
      "matrix": [
        1.0,
        0.0,
        -0.0,
        0.0,
        0.0,
        1.0,
        0.0,
        0.0,
        0.0,
        0.0,
        1.0,
        0.0,
        -83.3057861328125,
        79.53398132324219,
        -22.514053344726563,
        1.0
      ],
      "name": "Object_41"
    },
    {
      "mesh": 12,
      "name": "Cylinder004_2_0"
    },
    {
      "children": [
        44
      ],
      "name": "Cylinder005",
      "rotation": [
        -0.7071068286895752,
        -0.0,
        0.0,
        0.7071068286895752
      ],
      "scale": [
        1.2350850105285645,
        1.2350850105285645,
        1.2350850105285645
      ],
      "translation": [
        141.69390869140625,
        -43.956756591796875,
        78.29279327392578
      ]
    },
    {
      "children": [
        45
      ],
      "matrix": [
        1.0,
        0.0,
        -0.0,
        0.0,
        0.0,
        1.0,
        0.0,
        0.0,
        0.0,
        0.0,
        1.0,
        0.0,
        -83.30580139160156,
        79.53399658203125,
        -22.514053344726563,
        1.0
      ],
      "name": "Object_44"
    },
    {
      "mesh": 13,
      "name": "Cylinder005_2_0"
    },
    {
      "children": [
        47
      ],
      "name": "Cylinder006",
      "rotation": [
        -0.7071068286895752,
        -0.0,
        0.0,
        0.7071068286895752
      ],
      "scale": [
        0.6106119751930237,
        0.6106119751930237,
        0.6106119751930237
      ],
      "translation": [
        73.70889282226563,
        -46.12636947631836,
        -58.17637252807617
      ]
    },
    {
      "children": [
        48
      ],
      "matrix": [
        1.0,
        0.0,
        -0.0,
        0.0,
        0.0,
        1.0,
        0.0,
        0.0,
        0.0,
        0.0,
        1.0,
        0.0,
        -83.30580139160156,
        79.53399658203125,
        -22.514049530029297,
        1.0
      ],
      "name": "Object_47"
    },
    {
      "mesh": 14,
      "name": "Cylinder006_2_0"
    },
    {
      "children": [
        50
      ],
      "name": "Cylinder007",
      "rotation": [
        -0.7071068286895752,
        -0.0,
        0.0,
        0.7071068286895752
      ],
      "scale": [
        0.9968979954719543,
        0.7006019949913025,
        0.827485978603363
      ],
      "translation": [
        -85.44882202148438,
        -44.241947174072266,
        -13.132377624511719
      ]
    },
    {
      "children": [
        51
      ],
      "matrix": [
        1.0,
        0.0,
        -0.0,
        0.0,
        0.0,
        1.0,
        0.0,
        0.0,
        0.0,
        0.0,
        1.0,
        0.0,
        -83.3058090209961,
        79.53400421142578,
        -22.514049530029297,
        1.0
      ],
      "name": "Object_50"
    },
    {
      "mesh": 15,
      "name": "Cylinder007_2_0"
    },
    {
      "children": [
        53
      ],
      "name": "Cylinder008",
      "rotation": [
        -0.6438210606575012,
        -0.29239434003829956,
        -0.29239434003829956,
        0.6438210606575012
      ],
      "scale": [
        0.49863699078559875,
        0.5318700075149536,
        0.8071979880332947
      ],
      "translation": [
        -28.2720947265625,
        -44.721832275390625,
        -106.52667236328125
      ]
    },
    {
      "children": [
        54
      ],
      "matrix": [
        1.0,
        0.0,
        -0.0,
        0.0,
        0.0,
        1.0,
        0.0,
        0.0,
        0.0,
        0.0,
        1.0,
        0.0,
        -83.30581665039063,
        79.53398895263672,
        -22.514049530029297,
        1.0
      ],
      "name": "Object_53"
    },
    {
      "mesh": 16,
      "name": "Cylinder008_2_0"
    }
  ],
  "samplers": [
    {
      "magFilter": 9729,
      "minFilter": 9987,
      "wrapS": 10497,
      "wrapT": 10497
    }
  ],
  "scene": 0,
  "scenes": [
    {
      "name": "Sketchfab_Scene",
      "nodes": [
        0
      ]
    }
  ],
  "textures": [
    {
      "sampler": 0,
      "source": 0
    },
    {
      "sampler": 0,
      "source": 1
    },
    {
      "sampler": 0,
      "source": 2
    },
    {
      "sampler": 0,
      "source": 3
    },
    {
      "sampler": 0,
      "source": 4
    }
  ]
}
